<svg width="430" height="430" xmlns="http://www.w3.org/2000/svg">
 <defs>
  <filter color-interpolation-filters="sRGB" id="f">
   <feGaussianBlur stdDeviation="0.5"/>
  </filter>
  <filter color-interpolation-filters="sRGB" id="g">
   <feGaussianBlur stdDeviation="0.5"/>
  </filter>
  <filter color-interpolation-filters="sRGB" height="1.26" width="1.26" y="-0.15" x="-0.15" id="a">
   <feGaussianBlur stdDeviation="1"/>
  </filter>
  <linearGradient y2="4.674156" y1="4.400853" x2="1.221493" x1="1.331348" id="h">
   <stop offset="0" stop-color="#898989"/>
   <stop offset="1" stop-opacity="0" stop-color="#626464"/>
  </linearGradient>
  <linearGradient y2="8.276405" y1="8.177546" x2="1.385339" x1="2.036981" id="i">
   <stop offset="0" stop-color="#898989"/>
   <stop offset="1" stop-opacity="0" stop-color="#626464"/>
  </linearGradient>
 </defs>
 <g>
  <title>background</title>
  <rect fill="none" id="canvas_background" height="402" width="582" y="-1" x="-1"/>
 </g>
 <g>
  <title>Layer 1</title>
  <g stroke="null" id="svg_1">
   <path stroke="null" id="svg_2" fill="#fff" d="m235.984621,332.179588l67.737207,14.940026l16.257366,18.085065s2.709488,7.076665 16.799351,7.076665c4.744822,0 11.401312,4.733371 15.173396,7.469795c3.642967,2.642967 7.121812,9.369796 11.379502,12.973832c5.38408,4.557144 10.81069,11.391497 16.257366,13.366416c8.552129,8.016578 19.154859,18.56162 27.094883,24.767728l-405.877986,-1.57252l-0.541898,-147.81902l44.436218,2.358888l44.977113,26.733923l25.468928,20.836429"/>
   <path stroke="null" id="svg_3" fill="#eadfc8" d="m148.765402,100.401982l-22.43185,225.223623c23.483104,-0.983381 77.967308,0.642563 103.646705,-0.090731l-26.444937,-225.867026c-18.155949,-1.146238 -36.269368,-1.292694 -54.766647,0.729575l-0.003272,0.004558z"/>
   <path stroke="null" id="svg_4" d="m142.309566,365.156697c-5.726065,-6.76118 -7.782336,-13.136318 -10.11527,-15.929122c-8.398476,-10.155074 -8.676884,-11.490734 -13.809164,-18.260638c-10.788444,-11.0349 -14.774268,-12.930211 -24.122145,-19.427487c-7.423121,-6.895858 -11.423122,-7.85769 -17.664127,-14.250822c-5.526283,-3.164123 -9.552675,-3.519194 -16.302077,-9.708073c-7.269032,-3.123229 -2.257907,-3.873938 -15.194116,-6.097712c-10.876448,0.419815 -24.118873,-2.953 -28.448209,-2.676664l-15.550714,0.794384c-1.077623,2.735442 -0.578735,-5.14275 -0.520175,2.149183c15.089427,-0.062377 18.326069,0.248975 27.944392,2.335333c10.435336,2.263578 18.866963,1.259651 22.003278,3.010034c3.557689,2.232062 19.756822,11.098149 25.925853,16.311892c12.234464,9.063143 26.38714,17.897497 33.29663,23.45257c9.012544,8.474157 18.150496,26.236649 27.222473,38.937853"/>
   <path stroke="null" id="svg_5" d="m322.080612,365.233033c-5.337733,-7.063034 -12.437299,-15.221379 -17.187573,-18.579068c-12.414399,-4.130972 -22.947662,-6.298366 -33.110152,-9.139261c-15.101422,-4.314832 -20.400224,-4.352782 -26.998918,-6.746349c-17.147224,-1.416794 -42.351158,-1.344275 -68.263925,-1.23337c-25.912767,0.110981 -31.72411,0.463326 -40.046904,0.565638c-0.224013,0.882988 -1.010011,1.59771 1.273174,2.252345c0,0 28.041448,0.032388 47.009829,0.191167c18.968381,0.158746 40.304265,0.461549 51.027278,0.102617c17.815709,1.675464 44.937854,12.908401 62.201764,15.955294c12.250822,4.729118 17.613964,17.640136 21.149407,17.640136"/>
   <path stroke="null" id="svg_6" d="m59.722845,390.42388l-25.3457,-9.143841l-33.010915,-9.382555c-0.656445,2.004363 0.152715,1.418648 -0.376194,2.985279c6.081572,2.444821 12.049077,2.945802 23.031632,7.143077l22.526724,7.441115l26.715384,9.527157s17.390409,7.229446 27.618329,14.410037l11.986917,7.421485c3.149619,-0.023991 4.761179,-0.244275 6.780918,-0.374046l-20.776451,-13.231193c-6.257799,-2.326936 -11.288989,-6.316578 -22.074162,-10.989098l-17.076483,-5.807417z"/>
   <path stroke="#000" id="svg_7" stroke-width="1.5" fill="#fff" d="m176.006413,161.612469c-26.787358,-0.211887 -40.817897,3.030317 -43.002194,3.589423c-2.007743,3.346348 -2.255181,4.798148 -1.01192,8.466306c-3.157035,0.940655 19.169035,-4.299238 43.910591,-4.103491c22.23992,0.175922 44.571442,2.760851 44.571442,2.760851c1.191712,-3.091277 1.365758,-5.24046 -0.292563,-8.453656c-3.630754,-0.779968 -20.817891,-2.074701 -44.174495,-2.259434l-0.000862,0z"/>
   <path stroke="#000002" id="svg_8" stroke-width="0.81764" stroke-linejoin="round" stroke-linecap="round" filter="url(#g)" fill="none" d="m132.770929,174.35166s17.421841,-4.324703 43.246127,-4.120907c22.850703,0.180315 43.897528,2.502126 43.897528,2.502126"/>
   <path stroke="#000" id="svg_9" stroke-width="1.5" fill="#fff" d="m180.041311,110.772759c-24.841883,-0.209564 -38.10361,1.930644 -40.970569,2.710579c-1.228027,3.17023 -1.714941,4.921157 -0.483523,8.235117c0,0 17.880049,-2.931626 41.35552,-2.733589c21.100334,0.177983 30.526727,0.994537 33.572529,0.994537c0.784722,-2.026173 0.283937,-4.147657 -0.746969,-7.585717c0,0 -11.073068,-1.438386 -32.727382,-1.621047l0.000393,0.00012z"/>
   <path stroke="#000002" id="svg_10" stroke-width="0.81764" stroke-linejoin="round" stroke-linecap="round" filter="url(#f)" fill="none" d="m139.4885,122.845997s15.60199,-3.550301 38.922767,-3.346505c20.636567,0.180315 34.690227,1.34535 34.690227,1.34535"/>
   <path stroke="null" id="svg_11" fill="#4758ae" d="m199.47425,75.516478l0.357285,7.836971c-14.803712,-0.809346 -29.591067,-1.01229 -46.069807,0.400709l0.164875,-8.212761c16.43621,-1.420938 32.046902,-1.06036 45.547451,-0.024973l0.000196,0.000055z"/>
   <path stroke="null" id="svg_12" fill="#484848" d="m161.807936,20.936309c3.640241,-3.527155 6.498693,-6.643732 6.808835,-11.699022c0.288953,-4.710361 2.805017,-9.180483 8.063034,-9.229556c6.250165,-0.058342 8.766415,4.576119 8.958999,8.839588c0.314558,6.962925 2.759216,9.376012 5.196185,11.829884c7.821049,7.87383 30.646683,19.016363 18.45584,16.509274c-25.426398,-5.228573 -37.510371,-5.947003 -67.191951,0c-12.86478,2.577536 14.274813,-10.983646 19.70993,-16.249732l-0.000872,-0.000436z"/>
   <path stroke="null" id="svg_13" fill="#484848" d="m176.497144,84.491399c-14.871324,0.128223 -20.141773,0.866151 -30.884415,1.794003c-1.66554,5.11058 -2.669903,7.51985 0.424613,12.468924c10.541988,-0.910491 15.991281,-1.34373 30.49074,-1.468703c16.763364,-0.144537 21.543082,0.632705 32.670675,1.733479c2.196729,-5.744277 1.85867,-7.660744 0.444918,-12.644497c-11.171214,-1.105126 -16.179939,-2.030317 -33.146139,-1.884079l-0.000393,0.000872z"/>
   <path stroke="null" id="svg_14" fill="#484848" d="m177.40227,65.156606c-15.381684,-0.024646 -21.701206,0.852399 -30.137414,1.965213c-0.625802,3.431735 -1.210251,4.849729 1.197165,7.442532c8.288116,-1.093239 13.852785,-1.479608 28.940031,-1.455508c14.673941,0.023555 18.757912,0.462999 27.291175,1.307198c2.664341,-2.613632 2.436424,-4.766196 0.503359,-7.697385c-8.191169,-0.81036 -12.673941,-1.537841 -27.793902,-1.562051l-0.000414,0z"/>
   <path stroke="#484848" id="svg_15" stroke-width="1.5" stroke-linejoin="round" stroke-linecap="round" fill="none" d="m146.475325,61.67787s11.130865,-2.816359 31.687033,-2.612651c18.189755,0.180327 28.360968,2.565759 28.360968,2.565759"/>
   <path stroke="#484848" id="svg_16" stroke-width="1.5" stroke-linejoin="round" stroke-linecap="round" fill="none" d="m148.361912,61.492483l0,8.449621"/>
   <path stroke="#484848" id="svg_17" stroke-width="1.5" stroke-linejoin="round" stroke-linecap="round" fill="none" d="m153.869002,60.565547l0.052454,8.601966"/>
   <path stroke="#484848" id="svg_18" stroke-width="1.5" stroke-linejoin="round" stroke-linecap="round" fill="none" d="m159.64872,59.682231l0.358364,9.099567"/>
   <path stroke="#484848" id="svg_19" stroke-width="1.5" stroke-linejoin="round" stroke-linecap="round" fill="none" d="m165.930074,59.485939l0.358364,8.380046"/>
   <path stroke="#484848" id="svg_20" stroke-width="1.5" stroke-linejoin="round" stroke-linecap="round" fill="none" d="m173.454613,59.093354l0.179193,8.900003"/>
   <path stroke="#484848" id="svg_21" stroke-width="1.5" stroke-linejoin="round" stroke-linecap="round" fill="none" d="m180.979152,59.1915l-0.179171,8.938062"/>
   <path stroke="#484848" id="svg_22" stroke-width="1.5" stroke-linejoin="round" stroke-linecap="round" fill="none" d="m188.318304,59.725852l-0.179182,8.272303"/>
   <path stroke="#484848" id="svg_23" stroke-width="1.5" stroke-linejoin="round" stroke-linecap="round" fill="none" d="m195.079483,60.009385l-0.126685,7.990079"/>
   <path stroke="#484848" id="svg_24" stroke-linejoin="round" stroke-linecap="round" fill="none" d="m205.166727,61.623344l0,7.539697"/>
   <path stroke="null" id="svg_25" filter="url(#a)" fill-opacity="0.48148" fill="#b5b5b5" d="m167.173037,174.556137l4.300342,81.114034l10.327992,64.126481l-48.106579,0.306739l6.069615,-91.29248l6.574921,-52.271318l20.83371,-1.983456z"/>
   <path stroke="null" id="svg_26" filter="url(#a)" fill-opacity="0.48148" fill="#b5b5b5" d="m147.5214,123.016396l-4.307858,38.421361l24.833092,-2.573693l-4.054344,-37.869271c-5.957186,0.604095 -11.919226,0.549806 -16.47136,2.022171l0.00047,-0.000568z"/>
   <path stroke="null" id="svg_27" fill-rule="evenodd" fill="url(#i)" d="m182.71763,6.224382c0.754787,2.541496 0.157187,4.601819 -1.334791,4.601819c-1.491961,0 -3.313349,-2.060323 -4.068136,-4.601819s-0.157187,-4.601819 1.334791,-4.601819c1.487868,0 3.304346,2.049441 4.062843,4.583998"/>
   <path stroke="null" id="svg_28" fill="url(#h)" d="m181.971519,18.460845c3.956272,-0.641472 6.425302,2.136097 8.683863,4.426392c3.476773,3.279608 8.324103,5.658889 12.363144,8.57961c1.585715,1.146565 2.966958,1.774373 3.518431,3.785606c-4.734898,0.18157 -8.610253,-1.123337 -13.429666,-3.236751c-4.690405,-2.056925 -8.789098,-5.242313 -12.258455,-8.963034c-1.696511,-1.819521 -0.870273,-4.099456 1.122247,-4.591713l0.000436,-0.000109z"/>
   <path stroke="null" id="svg_29" d="m182.189621,207.795689l-0.150676,14.332611l10.513744,-0.107743l-0.179171,-14.407856l-10.183896,0.182988z"/>
   <path stroke="null" id="svg_30" filter="url(#a)" fill-opacity="0.48148" fill="#b5b5b5" d="m148.506288,102.276414l-0.039844,7.145105l14.045619,-1.353286c-0.147507,-0.352161 0.700698,-3.021881 0.852709,-3.214996l-2.493459,-3.41035c-4.051087,-0.044523 -6.026703,0.198914 -11.224107,0.737701c-0.79705,0.082776 -1.046043,0.257881 -1.141159,0.095866l0.000241,-0.00004z"/>
   <path stroke="null" id="svg_31" d="m150.815566,102.135897c0.234798,1.412432 0.188168,2.077863 0.188168,3.440241l6.620613,-0.275769l0.065322,-3.639805l-6.874102,0.475333z"/>
   <path stroke="null" id="svg_32" d="m166.137272,101.067195c0.234798,1.412432 0.18819,2.445475 0.18819,3.807962l6.74733,-0.18385l-0.061396,-3.731735l-6.874124,0.107623z"/>
   <path stroke="null" id="svg_33" d="m179.561485,100.881808c0.234798,1.412432 0.314886,2.445475 0.314886,3.807962l6.494004,-0.09193l-0.061396,-3.823665l-6.747494,0.107634z"/>
   <path stroke="null" id="svg_34" d="m193.378283,100.881808c0.234777,1.412432 0.314886,2.445475 0.314886,3.807962l6.74733,0.18385l0.065322,-3.547875l-7.127538,-0.443937z"/>
   <path stroke="#484848" id="svg_35" stroke-width="1.5" fill="none" d="m200.32485,60.194772l0,8.449621"/>
   <path stroke="null" id="svg_36" filter="url(#a)" fill="#fefb51" d="m162.678997,37.078959l0.743959,18.796045l27.526384,0l0,-18.796045l-28.270343,0z"/>
   <path stroke="null" id="svg_37" filter="url(#a)" fill="#f2f2f2" d="m148.94634,376.046197l25.118079,5.24224l12.869864,30.367211l24.999074,10.611371l-28.835449,-2.821111l-22.077165,-3.205188l-33.918254,3.415346l-39.284482,-26.307193l30.875774,-10.98227l30.252559,-6.320406zm-73.954353,7.161945l-72.524716,-24.316943c-2.425998,-33.465049 -1.483612,-37.124064 -0.338713,-71.655804c22.846006,1.80622 31.996935,5.459214 48.651501,8.726768l22.669063,19.064138l33.805512,19.723011l19.429283,30.765943c-11.205034,2.45396 -18.129613,2.020921 -29.757745,7.695746l-21.934186,9.997142z"/>
   <path stroke="null" id="svg_38" filter="url(#a)" fill-opacity="0.91244" fill="#e4e4e4" d="m8.627393,302.184306l37.51975,1.647522s22.651838,25.167798 23.074622,33.756997c-13.10772,3.067506 -22.999461,0.41451 -38.644042,13.9113l-17.301269,-15.892462l-4.64906,-33.423358z"/>
   <path stroke="null" id="svg_39" filter="url(#a)" fill-opacity="0.91244" fill="#e4e4e4" d="m97.314993,391.984099l56.942769,-7.581806l22.789635,26.703652l-45.964473,-3.67526l-19.064436,-10.359636l-14.703495,-5.086951z"/>
   <path stroke="null" id="svg_40" filter="url(#a)" fill="#f2f2f2" d="m134.981934,339.603726l93.781366,0.677014l66.749797,13.969235s10.377317,8.948967 13.865756,13.856773c-14.846146,2.290491 -19.640675,5.653127 -30.493702,9.359853c-24.297565,11.719981 -46.050595,23.401338 -55.323662,29.849201l-24.206745,-5.480798l-13.489635,-32.880015l-33.839961,-8.244087l-17.043214,-21.107177z"/>
   <path stroke="null" id="svg_41" filter="url(#a)" fill-opacity="0.91244" fill="#e4e4e4" d="m216.544837,360.971647l27.416773,-8.291798l27.956997,15.361956c-19.803525,2.423288 -38.741126,6.873064 -49.309165,26.093627l-15.920174,-1.176428l9.85557,-31.987356z"/>
   <path stroke="null" id="svg_42" filter="url(#a)" fill="#f2f2f2" d="m282.906299,389.712124l53.787546,-13.730678l27.884967,24.543005c11.209262,8.361207 18.254883,18.329154 23.937415,25.786911c-8.592541,-0.241624 -31.365891,-5.743324 -48.969372,-5.615639s-30.036469,5.884755 -42.948612,5.991651l-28.949757,-6.372889l-30.277613,-2.132816l45.535425,-28.469545z"/>
   <path stroke="null" id="svg_43" filter="url(#a)" fill-opacity="0.91244" fill="#e4e4e4" d="m265.650439,408.455914l66.801471,-21.629197l31.94213,28.437169l-32.690614,-5.843518l-44.595904,9.559901l-21.457081,-10.524354z"/>
   <path stroke="null" id="svg_44" filter="url(#a)" fill="#f2f2f2" d="m1.76263,387.894545c32.161351,5.260984 43.538944,6.300185 70.936926,18.14626l30.54381,16.25825c-13.077812,-0.21118 -16.573141,-1.107247 -28.669467,-1.091343c-26.723094,0 -29.403859,-0.097695 -42.207957,-0.902883l-29.143925,1.490756c-0.2848,-13.288779 0.199225,-19.742323 -1.45906,-33.902404l-0.000329,0.001363z"/>
   <path stroke="null" id="svg_45" filter="url(#a)" fill-opacity="0.91244" fill="#e4e4e4" d="m11.107727,396.641646l53.313088,11.172321l-5.446713,7.978379l-19.758115,0.932078l-24.781418,-1.422938l-3.326842,-18.65984z"/>
   <path stroke="#000" id="svg_46" stroke-width="1.5" stroke-linejoin="round" fill="#fff" d="m187.391368,321.318079s0.363163,-14.219197 0,-27.080706c8.398476,-9.478084 13.064344,-9.478084 24.26173,-0.677001l0.699869,27.418765l-24.9616,0.338942z"/>
   <path stroke="null" id="svg_47" d="m187.838478,320.947305l0.096728,-27.006551c6.098693,-6.455618 9.447658,-10.03599 21.018545,0.916347l0.836532,25.850608l-21.951806,0.239597z"/>
   <path stroke="#000" id="svg_48" stroke-width="1.2265" stroke-opacity="0.34562" fill-opacity="0.35023" fill="#f00" d="m180.89662,46.149389c0,1.718408 -1.994132,3.111583 -4.453953,3.111583s-4.453953,-1.393061 -4.453953,-3.111583c0,-1.718408 1.994132,-3.111583 4.453953,-3.111583s4.453953,1.393061 4.453953,3.111583z"/>
   <path stroke="null" id="svg_49" d="m332.298718,368.471856l-26.503825,6.581354s-13.154857,3.452782 -24.682668,7.729664c-12.968379,5.51974 -22.214838,10.45442 -30.464568,15.893135c-8.538061,5.6289 -17.140681,10.757691 -24.569255,15.371869l3.138605,0.902508l27.453662,-16.307529l19.172307,-10.569905c9.407745,-3.07143 22.332613,-8.491169 33.033816,-10.921486c10.701421,-2.430535 9.654092,-2.693567 20.116691,-5.085607c6.727156,-0.108506 13.18212,3.165323 13.18212,3.165323l15.961837,12.399131s8.637952,8.682009 18.958566,17.32934c13.147223,10.448095 18.029449,15.274814 27.320619,23.954206c3.395639,0.88964 5.246457,1.105344 4.062706,-0.457688l-34.139596,-31.370784s-29.863695,-24.453661 -31.924764,-26.02618c-2.690841,-0.325376 -10.115052,-2.587569 -10.115052,-2.587569l-0.0012,0.000218z"/>
   <path stroke="null" id="svg_50" d="m220.870113,415.025851s-16.375141,-3.670339 -22.51691,-5.897276c-5.570558,-3.196729 -9.507636,-13.357692 -13.621596,-23.945482c-0.84168,-4.14035 -2.442967,-9.661726 -4.956272,-10.899022c-6.636098,-0.132181 -26.487467,-5.236207 -31.455844,-5.647221l-10.852784,1.123228l-24.329342,5.690623c5.05769,-1.534134 -22.318436,7.372848 -16.838609,5.379173l-22.717564,9.879938l3.185824,1.63228l22.60306,-9.360744l28.589976,-7.208944l15.507093,-3.435334l7.61058,-0.538626s22.333704,5.408944 27.116693,5.493568c1.919739,2.558779 2.591386,11.058891 7.689642,22.912766c2.483861,4.643295 5.066959,8.946349 6.598584,9.438716c7.983427,4.865214 14.919307,5.075247 24.705569,7.254855c3.891386,0.010905 4.701964,3.135115 6.428355,2.793349l1.790731,-1.136205l-4.537188,-3.529641z"/>
   <path stroke="#000" id="svg_51" stroke-width="2.5" stroke-linecap="round" fill="none" d="m200.771961,38.72692l0.397219,18.07307"/>
   <path stroke="#000" id="svg_52" stroke-width="2.5" stroke-linecap="round" fill="none" d="m152.505861,38.528447l0.198615,17.47765"/>
   <path stroke="#000" id="svg_53" stroke-width="2.5" stroke-linecap="round" fill="none" d="m148.732686,77.058447l-0.397219,6.752674"/>
   <path stroke="#000" id="svg_54" stroke-width="2.5" stroke-linecap="round" fill="none" d="m204.741427,76.859974l0.445398,6.156818"/>
   <path stroke="#000" id="svg_55" stroke-width="2.5" stroke-linecap="round" fill="none" d="m145.559294,101.088989l-1.191603,8.341551"/>
   <path stroke="#000" id="svg_56" stroke-width="2.5" stroke-linecap="round" fill="none" d="m207.129651,101.481574l0.794428,7.348421"/>
   <path stroke="#000" id="svg_57" stroke-width="2.5" stroke-linecap="round" fill="none" d="m141.797025,126.388888l-4.09673,34.047993"/>
   <path stroke="#000" id="svg_58" stroke-width="2.5" stroke-linecap="round" fill="none" d="m210.564766,124.633162l4.09673,34.396957"/>
   <path stroke="#000" id="svg_59" stroke-width="2.5" stroke-linecap="round" fill="none" d="m136.213599,177.490321l-15.081793,146.96842"/>
   <path stroke="#000" id="svg_60" stroke-width="2.5" stroke-linecap="round" fill="none" d="m216.628018,176.312567l17.976014,147.590012"/>
  </g>
 </g>
</svg>